<svg width="98" height="19" viewBox="0 0 98 19" fill="none" xmlns="http://www.w3.org/2000/svg">
<path d="M27.1758 14L28.1719 3.6875H31.6699L32.6484 14H30.6973L30.5508 12.3359H29.3086L29.1797 14H27.1758ZM29.4551 10.6895H30.3926L29.9414 5.44531H29.8477L29.4551 10.6895ZM36.0905 14.0938C35.1491 14.0938 34.4694 13.8594 34.0514 13.3906C33.6373 12.9219 33.4303 12.1758 33.4303 11.1523V10.1445H35.4694V11.4336C35.4694 11.6719 35.5045 11.8594 35.5748 11.9961C35.6491 12.1289 35.776 12.1953 35.9557 12.1953C36.1432 12.1953 36.2721 12.1406 36.3424 12.0312C36.4166 11.9219 36.4538 11.7422 36.4538 11.4922C36.4538 11.1758 36.4225 10.9121 36.36 10.7012C36.2975 10.4863 36.1881 10.2832 36.0319 10.0918C35.8795 9.89648 35.6666 9.66992 35.3932 9.41211L34.4674 8.5332C33.776 7.88086 33.4303 7.13477 33.4303 6.29492C33.4303 5.41602 33.6334 4.74609 34.0397 4.28516C34.4498 3.82422 35.0416 3.59375 35.8151 3.59375C36.7604 3.59375 37.4303 3.8457 37.8248 4.34961C38.2233 4.85352 38.4225 5.61914 38.4225 6.64648H36.3248V5.9375C36.3248 5.79688 36.2838 5.6875 36.2018 5.60938C36.1237 5.53125 36.0163 5.49219 35.8795 5.49219C35.7155 5.49219 35.5944 5.53906 35.5163 5.63281C35.442 5.72266 35.4049 5.83984 35.4049 5.98438C35.4049 6.12891 35.444 6.28516 35.5221 6.45312C35.6002 6.62109 35.7545 6.81445 35.985 7.0332L37.1745 8.17578C37.4127 8.40234 37.6315 8.64258 37.8307 8.89648C38.0299 9.14648 38.1901 9.43945 38.3112 9.77539C38.4323 10.1074 38.4928 10.5137 38.4928 10.9941C38.4928 11.9629 38.3131 12.7227 37.9538 13.2734C37.5983 13.8203 36.9772 14.0938 36.0905 14.0938ZM40.429 14V5.66797H39.2044V3.6875H43.7161V5.66797H42.4915V14H40.429ZM44.6503 14V3.6875H47.8144C48.3417 3.6875 48.7402 3.80859 49.0097 4.05078C49.2792 4.28906 49.4589 4.625 49.5487 5.05859C49.6425 5.48828 49.6894 5.99414 49.6894 6.57617C49.6894 7.13867 49.6171 7.58789 49.4726 7.92383C49.332 8.25977 49.0644 8.49219 48.6698 8.62109C48.9941 8.6875 49.2206 8.84961 49.3495 9.10742C49.4823 9.36133 49.5487 9.69141 49.5487 10.0977V14H47.5155V9.96289C47.5155 9.66211 47.453 9.47656 47.328 9.40625C47.207 9.33203 47.0097 9.29492 46.7362 9.29492V14H44.6503ZM46.748 7.50781H47.246C47.5312 7.50781 47.6737 7.19727 47.6737 6.57617C47.6737 6.17383 47.6425 5.91016 47.58 5.78516C47.5175 5.66016 47.4003 5.59766 47.2284 5.59766H46.748V7.50781ZM50.4478 14L51.4439 3.6875H54.942L55.9205 14H53.9693L53.8228 12.3359H52.5806L52.4517 14H50.4478ZM52.7271 10.6895H53.6646L53.2134 5.44531H53.1197L52.7271 10.6895ZM56.9133 14V3.6875H61.0383V5.67969H59.0109V7.68945H60.9562V9.62891H59.0109V11.9902H61.173V14H56.9133ZM64.6034 14.0938C63.744 14.0938 63.1112 13.8535 62.7049 13.373C62.2987 12.8887 62.0955 12.1777 62.0955 11.2402V3.6875H64.0995V11.1582C64.0995 11.3301 64.1092 11.4961 64.1287 11.6562C64.1483 11.8125 64.1932 11.9414 64.2635 12.043C64.3338 12.1445 64.4471 12.1953 64.6034 12.1953C64.7635 12.1953 64.8787 12.1465 64.9491 12.0488C65.0194 11.9473 65.0623 11.8164 65.078 11.6562C65.0975 11.4961 65.1073 11.3301 65.1073 11.1582V3.6875H67.1112V11.2402C67.1112 12.1777 66.908 12.8887 66.5018 13.373C66.0955 13.8535 65.4627 14.0938 64.6034 14.0938ZM70.7114 14.0938C69.77 14.0938 69.0903 13.8594 68.6723 13.3906C68.2583 12.9219 68.0513 12.1758 68.0513 11.1523V10.1445H70.0903V11.4336C70.0903 11.6719 70.1255 11.8594 70.1958 11.9961C70.27 12.1289 70.397 12.1953 70.5766 12.1953C70.7641 12.1953 70.893 12.1406 70.9634 12.0312C71.0376 11.9219 71.0747 11.7422 71.0747 11.4922C71.0747 11.1758 71.0434 10.9121 70.9809 10.7012C70.9184 10.4863 70.8091 10.2832 70.6528 10.0918C70.5005 9.89648 70.2876 9.66992 70.0141 9.41211L69.0884 8.5332C68.397 7.88086 68.0513 7.13477 68.0513 6.29492C68.0513 5.41602 68.2544 4.74609 68.6606 4.28516C69.0708 3.82422 69.6626 3.59375 70.436 3.59375C71.3813 3.59375 72.0513 3.8457 72.4458 4.34961C72.8442 4.85352 73.0434 5.61914 73.0434 6.64648H70.9458V5.9375C70.9458 5.79688 70.9048 5.6875 70.8227 5.60938C70.7446 5.53125 70.6372 5.49219 70.5005 5.49219C70.3364 5.49219 70.2153 5.53906 70.1372 5.63281C70.063 5.72266 70.0259 5.83984 70.0259 5.98438C70.0259 6.12891 70.0649 6.28516 70.143 6.45312C70.2212 6.62109 70.3755 6.81445 70.6059 7.0332L71.7954 8.17578C72.0337 8.40234 72.2524 8.64258 72.4516 8.89648C72.6509 9.14648 72.811 9.43945 72.9321 9.77539C73.0532 10.1074 73.1138 10.5137 73.1138 10.9941C73.1138 11.9629 72.9341 12.7227 72.5747 13.2734C72.2192 13.8203 71.5981 14.0938 70.7114 14.0938ZM79.4646 14.0938C77.992 14.0938 77.2556 13.0391 77.2556 10.9297V6.48242C77.2556 4.55664 78.0994 3.59375 79.7869 3.59375C80.4822 3.59375 81.0154 3.73438 81.3865 4.01562C81.7576 4.29297 82.0134 4.69922 82.1541 5.23438C82.2947 5.76953 82.365 6.42188 82.365 7.19141H80.3494V6.27734C80.3494 6.05469 80.3181 5.86914 80.2556 5.7207C80.197 5.56836 80.072 5.49219 79.8806 5.49219C79.6423 5.49219 79.4841 5.57227 79.406 5.73242C79.3318 5.89258 79.2947 6.06836 79.2947 6.25977V11.2578C79.2947 11.5352 79.3298 11.7617 79.4002 11.9375C79.4744 12.1094 79.617 12.1953 79.8279 12.1953C80.0466 12.1953 80.1912 12.1094 80.2615 11.9375C80.3357 11.7617 80.3728 11.5312 80.3728 11.2461V9.77539H79.822V7.99414H82.3416V14H81.5154L81.1638 13.1328C80.8045 13.7734 80.238 14.0938 79.4646 14.0938ZM84.7699 14V10.6074L83.1234 3.6875H85.1684L85.7426 7.17969L86.3168 3.6875H88.3559L86.7152 10.6074V14H84.7699ZM89.2373 14V3.6875H92.378L93.2452 9.97461L94.1065 3.6875H97.2764V14H95.3897V6.57031L94.2061 14H92.3545L91.1006 6.57031V14H89.2373Z" fill="white"/>
<path d="M13.108 10.3307L13.108 3L19.5 14.5L13.108 10.3307Z" fill="#F9EF23"/>
<path d="M1.50001 14.5L12.1736 3L12.1736 12.9143L1.50001 14.5Z" fill="#F9EF23"/>
<circle cx="20" cy="6" r="3" fill="#F9EF23"/>
</svg>
